<svg xmlns="http://www.w3.org/2000/svg" width="274" height="37" viewBox="0 0 274 37" fill="none"><path fill-rule="evenodd" clip-rule="evenodd" d="M72.99 27.295a5.344 5.344 0 0 0 1.951-2.022c.476-.854.714-1.81.714-2.872 0-.305-.008-.53-.027-.674a.292.292 0 0 1-.027-.134c-.18-1.402-.767-2.553-1.764-3.452-.996-.898-2.203-1.348-3.621-1.348-1.023 0-1.952.243-2.785.728a5.202 5.202 0 0 0-1.966 2.008c-.476.855-.713 1.812-.713 2.872 0 1.061.237 2.018.713 2.872a5.29 5.29 0 0 0 1.965 2.022c.834.494 1.763.741 2.786.741 1.024 0 1.948-.247 2.774-.74Zm4.712-11.23v6.336c0 1.402-.328 2.68-.983 3.829a7.173 7.173 0 0 1-2.694 2.71c-1.139.656-2.409.984-3.809.984-1.399 0-2.67-.328-3.81-.984a7.157 7.157 0 0 1-2.692-2.71c-.655-1.15-.982-2.427-.982-3.829 0-1.401.319-2.673.956-3.814a7.103 7.103 0 0 1 2.611-2.697c1.105-.656 2.338-.984 3.701-.984 1.168 0 2.236.246 3.205.741a6.66 6.66 0 0 1 2.396 2.036v-7.9c0-.306.099-.557.296-.756a1.02 1.02 0 0 1 .754-.297c.305 0 .553.1.74.297.188.199.284.45.284.755v6.04a.854.854 0 0 1 .026.243Zm5.173 13.428a1.026 1.026 0 0 1-.296-.756V16.092c0-.305.099-.557.296-.755.197-.198.45-.297.755-.297.304 0 .551.1.74.296.187.199.283.45.283.756v12.645c0 .307-.096.558-.283.756-.189.198-.436.296-.74.296a1.02 1.02 0 0 1-.755-.296Zm-.31-17.688a1.45 1.45 0 0 1-.417-1.052c0-.431.144-.782.431-1.052.287-.27.637-.404 1.051-.404.395 0 .735.135 1.023.404.287.27.43.62.43 1.052 0 .414-.143.765-.43 1.052a1.431 1.431 0 0 1-1.052.431c-.412 0-.756-.144-1.035-.431ZM99.15 27.322a5.05 5.05 0 0 0 1.938-1.995c.466-.853.7-1.82.7-2.899 0-1.078-.234-2.044-.7-2.899a5.146 5.146 0 0 0-1.938-2.008c-.826-.485-1.76-.728-2.8-.728-1.06 0-2 .243-2.826.728a5.154 5.154 0 0 0-1.94 2.008c-.467.855-.699 1.821-.699 2.9 0 1.078.232 2.045.699 2.898a5.057 5.057 0 0 0 1.94 1.995c.825.477 1.766.715 2.825.715 1.041 0 1.975-.238 2.8-.715Zm1.049-11.46a6.93 6.93 0 0 1 2.667 2.67c.645 1.142.969 2.44.969 3.896v5.5c0 1.439-.319 2.742-.956 3.91a7.14 7.14 0 0 1-2.652 2.764c-1.13.675-2.406 1.012-3.823 1.012-1.383 0-2.611-.261-3.689-.782a7.665 7.665 0 0 1-2.719-2.184.898.898 0 0 1-.242-.62c0-.27.125-.504.376-.701.18-.127.377-.19.593-.19.162 0 .323.041.485.122a.98.98 0 0 1 .376.31 5.46 5.46 0 0 0 2.046 1.59c.826.378 1.76.567 2.801.567 1.004 0 1.915-.247 2.732-.741.817-.495 1.459-1.186 1.925-2.077.466-.89.7-1.91.7-3.06v-1.213a5.992 5.992 0 0 1-2.287 2.413c-.988.584-2.11.876-3.367.876-1.399 0-2.652-.319-3.755-.957a6.72 6.72 0 0 1-2.585-2.67c-.62-1.14-.929-2.43-.929-3.869 0-1.456.323-2.754.97-3.896a6.9 6.9 0 0 1 2.678-2.67c1.14-.637 2.42-.957 3.836-.957 1.437 0 2.72.32 3.85.958Zm8.418 13.631a1.026 1.026 0 0 1-.296-.756V16.092c0-.305.099-.557.296-.755.197-.198.45-.297.755-.297.304 0 .552.1.74.296.188.199.283.45.283.756v12.645c0 .307-.095.558-.283.756-.188.198-.436.296-.74.296-.305 0-.558-.098-.755-.296Zm-.309-17.688a1.452 1.452 0 0 1-.418-1.052c0-.431.144-.782.431-1.052.287-.27.637-.404 1.051-.404.395 0 .735.135 1.023.404.287.27.431.62.431 1.052 0 .414-.144.765-.431 1.052a1.432 1.432 0 0 1-1.051.431c-.413 0-.757-.144-1.036-.431ZM122.72 28.01c.179.198.269.449.269.754a.95.95 0 0 1-.323.73 1.149 1.149 0 0 1-.809.295h-.564c-.953 0-1.805-.229-2.559-.688a4.809 4.809 0 0 1-1.762-1.86c-.423-.782-.634-1.667-.634-2.655v-7.2h-1.749c-.288 0-.516-.085-.687-.257a.861.861 0 0 1-.256-.633c0-.27.086-.49.256-.66.171-.17.399-.257.687-.257h1.749V11.4c0-.305.096-.557.283-.755.189-.198.436-.296.741-.296s.555.098.754.296c.198.198.296.45.296.755v4.179h3.043c.285 0 .514.086.685.257.17.17.257.39.257.66a.862.862 0 0 1-.257.633c-.171.172-.4.257-.685.257h-3.043v7.2c0 .916.269 1.667.807 2.25.54.585 1.23.877 2.074.877h.727c.287 0 .519.099.7.296Zm12.306-.701a5.25 5.25 0 0 0 1.951-2.009c.477-.854.714-1.811.714-2.871 0-1.061-.237-2.018-.714-2.872a5.353 5.353 0 0 0-1.951-2.022c-.826-.495-1.749-.742-2.774-.742-1.022 0-1.952.247-2.785.742a5.294 5.294 0 0 0-1.965 2.022c-.477.854-.714 1.81-.714 2.872 0 1.06.237 2.017.714 2.871a5.195 5.195 0 0 0 1.965 2.009c.833.485 1.763.727 2.785.727 1.025 0 1.948-.242 2.774-.727Zm1.036-11.42a7.178 7.178 0 0 1 2.693 2.71c.655 1.151.983 2.427.983 3.83v6.335a1.017 1.017 0 0 1-1.051 1.025c-.306 0-.556-.094-.754-.282-.197-.19-.295-.437-.295-.743v-1.617a6.677 6.677 0 0 1-2.397 2.036c-.969.494-2.036.74-3.204.74-1.364 0-2.597-.327-3.701-.983a7.095 7.095 0 0 1-2.612-2.697c-.637-1.14-.956-2.413-.956-3.814 0-1.403.328-2.679.983-3.83a7.161 7.161 0 0 1 2.692-2.71c1.139-.655 2.411-.983 3.809-.983 1.4 0 2.67.328 3.81.984Zm8.453 12.593c-.69-.872-1.036-1.99-1.036-3.357V9.755c0-.305.099-.552.296-.74a1.01 1.01 0 0 1 .727-.284c.306 0 .553.094.74.283.189.189.284.436.284.742v15.369c0 .773.157 1.402.471 1.887.313.486.714.728 1.198.728h.672a.81.81 0 0 1 .647.283c.162.19.242.436.242.742a.924.924 0 0 1-.336.741c-.226.189-.516.284-.875.284h-.35c-1.096 0-1.988-.437-2.68-1.308Zm24.728-1.173a5.258 5.258 0 0 0 1.954-2.009c.474-.854.713-1.811.713-2.871 0-1.061-.239-2.018-.713-2.872a5.36 5.36 0 0 0-1.954-2.022c-.825-.495-1.749-.742-2.772-.742-1.023 0-1.951.247-2.787.742a5.323 5.323 0 0 0-1.965 2.022c-.476.854-.713 1.81-.713 2.872 0 1.06.237 2.017.713 2.871a5.222 5.222 0 0 0 1.965 2.009c.836.485 1.764.727 2.787.727s1.947-.242 2.772-.727Zm1.038-11.42a7.169 7.169 0 0 1 2.692 2.71c.655 1.151.982 2.427.982 3.83v6.335c0 .288-.099.531-.295.73-.198.197-.45.296-.754.296a1.05 1.05 0 0 1-.754-.283c-.198-.19-.297-.437-.297-.743v-1.617a6.666 6.666 0 0 1-2.396 2.036c-.969.494-2.037.74-3.203.74-1.364 0-2.599-.327-3.701-.983a7.088 7.088 0 0 1-2.612-2.697c-.638-1.14-.956-2.413-.956-3.814 0-1.403.326-2.679.983-3.83a7.154 7.154 0 0 1 2.692-2.71c1.139-.655 2.409-.983 3.809-.983 1.4 0 2.67.328 3.81.984Zm19.54.095a1.1 1.1 0 0 1-.081.378l-5.896 12.726c-.234.468-.575.702-1.023.702-.431 0-.753-.234-.969-.702l-5.977-12.7a.845.845 0 0 1-.08-.377c0-.378.197-.664.591-.862a.848.848 0 0 1 .431-.108c.179 0 .346.045.499.134.152.09.263.225.335.404l5.17 11.218 5.115-11.218a.846.846 0 0 1 .351-.417c.16-.099.341-.149.538-.149a.86.86 0 0 1 .431.108c.376.18.565.468.565.863Zm5.386 2.049c-.897.845-1.445 1.96-1.642 3.344h9.853c-.143-1.384-.646-2.499-1.507-3.344-.862-.845-1.965-1.268-3.312-1.268-1.363 0-2.494.423-3.392 1.268Zm6.92-2.197a6.355 6.355 0 0 1 2.382 2.575c.565 1.096.848 2.346.848 3.747 0 .288-.091.517-.269.688-.179.172-.413.256-.701.256h-10.875c.143 1.474.716 2.67 1.722 3.586 1.004.918 2.261 1.376 3.77 1.376.645 0 1.296-.112 1.951-.337.655-.225 1.18-.508 1.574-.85.234-.18.477-.27.729-.27.197 0 .394.073.592.216.232.216.349.458.349.728 0 .234-.099.441-.296.62-.592.504-1.345.922-2.261 1.254-.915.333-1.794.499-2.638.499-1.437 0-2.721-.319-3.85-.957a6.825 6.825 0 0 1-2.652-2.67c-.638-1.14-.956-2.43-.956-3.869 0-1.456.299-2.754.901-3.896.602-1.142 1.437-2.03 2.505-2.67 1.068-.637 2.284-.957 3.647-.957 1.329 0 2.505.31 3.528.931Zm17.367-.149c1.015.54 1.808 1.326 2.383 2.36.573 1.034.861 2.269.861 3.707v7.01c0 .288-.099.53-.296.729a.988.988 0 0 1-.727.296c-.306 0-.556-.099-.753-.296a.99.99 0 0 1-.296-.729v-7.01c0-1.6-.445-2.818-1.334-3.653-.889-.836-2.05-1.254-3.485-1.254-.881 0-1.675.17-2.383.512-.71.342-1.27.814-1.682 1.416a3.458 3.458 0 0 0-.62 2.009v7.98c0 .306-.094.553-.283.742-.188.189-.436.283-.74.283-.306 0-.556-.094-.754-.283-.199-.189-.297-.436-.297-.742V16.092c0-.306.098-.557.297-.756a1.02 1.02 0 0 1 .754-.296c.304 0 .552.099.74.296.189.199.283.45.283.756v.916a6.276 6.276 0 0 1 2.154-1.564 6.645 6.645 0 0 1 2.745-.565c1.275 0 2.419.27 3.433.808Zm20.949-.364c.197.19.296.436.296.742v12.672c0 .307-.099.558-.296.756a1.02 1.02 0 0 1-.754.296c-.306 0-.551-.099-.74-.296-.189-.198-.282-.45-.282-.756v-.916a6.314 6.314 0 0 1-2.154 1.564 6.653 6.653 0 0 1-2.747.566c-1.275 0-2.418-.27-3.432-.809a5.784 5.784 0 0 1-2.383-2.359c-.575-1.034-.862-2.27-.862-3.708v-7.01a.99.99 0 0 1 .296-.729.993.993 0 0 1 .728-.296c.304 0 .555.099.754.296a.996.996 0 0 1 .296.73v7.01c0 1.6.444 2.817 1.331 3.652.889.836 2.052 1.255 3.487 1.255.879 0 1.675-.171 2.383-.512.708-.341 1.27-.814 1.683-1.416.412-.603.62-1.272.62-2.01v-7.98c0-.306.093-.553.282-.742.189-.188.434-.283.74-.283.304 0 .557.095.754.283Zm8.058 2.71c-.897.845-1.443 1.96-1.64 3.344h9.853c-.144-1.384-.647-2.499-1.509-3.344-.86-.845-1.965-1.268-3.31-1.268-1.365 0-2.496.423-3.394 1.268Zm6.92-2.197c1.024.62 1.817 1.479 2.382 2.575.567 1.096.849 2.346.849 3.747 0 .288-.09.517-.269.688-.18.172-.414.256-.7.256h-10.877c.143 1.474.718 2.67 1.724 3.586 1.004.918 2.261 1.376 3.768 1.376a5.97 5.97 0 0 0 1.951-.337c.655-.225 1.182-.508 1.576-.85.232-.18.475-.27.727-.27.197 0 .394.073.591.216.234.216.351.458.351.728 0 .234-.098.441-.295.62-.594.504-1.347.922-2.263 1.254-.915.333-1.795.499-2.638.499-1.436 0-2.719-.319-3.85-.957a6.825 6.825 0 0 1-2.652-2.67c-.636-1.14-.956-2.43-.956-3.869 0-1.456.301-2.754.903-3.896.601-1.142 1.435-2.03 2.503-2.67 1.068-.637 2.284-.957 3.649-.957 1.327 0 2.503.31 3.526.931Zm8.645 13.522c-1.022-.378-1.849-.907-2.476-1.59-.181-.217-.271-.423-.271-.62 0-.306.144-.576.431-.81a1.11 1.11 0 0 1 .674-.243c.306 0 .565.126.78.377.431.504 1.001.89 1.711 1.16.709.27 1.494.404 2.355.404 1.256 0 2.199-.215 2.827-.647.628-.431.951-.997.969-1.698 0-.648-.314-1.186-.942-1.618-.629-.431-1.625-.755-2.988-.971-1.759-.287-3.075-.785-3.945-1.496-.871-.71-1.305-1.568-1.305-2.575 0-1.312.506-2.328 1.52-3.047 1.015-.719 2.285-1.079 3.81-1.079 1.185 0 2.217.203 3.096.607.879.404 1.589.967 2.127 1.686.144.232.216.44.216.62 0 .306-.144.548-.431.727-.125.09-.296.135-.512.135-.377 0-.691-.135-.942-.404-.879-1.007-2.082-1.51-3.607-1.51-.988 0-1.778.202-2.37.606-.591.405-.889.913-.889 1.524 0 .647.279 1.164.836 1.55.556.387 1.542.697 2.961.93 1.919.325 3.293.85 4.118 1.578.826.728 1.24 1.632 1.24 2.71a3.54 3.54 0 0 1-.742 2.21c-.493.648-1.179 1.151-2.058 1.511-.881.36-1.877.539-2.989.539a9.168 9.168 0 0 1-3.204-.566Z" fill="#173753"/><mask id="a" mask-type="alpha" maskUnits="userSpaceOnUse" x="0" y="0" width="26" height="36"><path d="M0 .367h25.942v35.247H0V.367Z" fill="#fff"/></mask><g mask="url(#a)"><path fill-rule="evenodd" clip-rule="evenodd" d="M18.399 25.928a6.07 6.07 0 0 1-2.235 2.32c-.943.566-1.982.837-3.174.837-1.196 0-2.243-.275-3.2-.844a5.998 5.998 0 0 1-2.246-2.313c-.557-.996-.824-2.097-.824-3.364 0-1.268.267-2.369.824-3.369a5.868 5.868 0 0 1 2.234-2.283c.962-.561 2.012-.833 3.212-.833 1.648 0 3.003.502 4.143 1.529 1.136 1.022 1.793 2.3 2.015 3.915.012.137.03.271.064.405.004.111.01.308.01.636 0 1.267-.267 2.368-.823 3.364ZM25.01 1.39C24.376.72 23.53.367 22.56.367c-.946 0-1.789.342-2.435.99-.642.646-.98 1.486-.98 2.435v7.554a12.355 12.355 0 0 0-.865-.487c-1.7-.866-3.586-1.305-5.61-1.305-2.357 0-4.528.58-6.455 1.726a12.443 12.443 0 0 0-4.555 4.703C.557 17.953 0 20.169 0 22.563c0 2.402.576 4.63 1.704 6.615A12.558 12.558 0 0 0 6.397 33.9c1.975 1.137 4.19 1.714 6.593 1.714 2.401 0 4.618-.577 6.593-1.714a12.422 12.422 0 0 0 4.314-4.101c-1.129-2.175-1.7-4.592-1.7-7.194 0-2.782.664-5.358 1.982-7.667a14.738 14.738 0 0 1 1.763-2.472V3.792c0-.93-.323-1.763-.932-2.403Z" fill="#173753"/></g><path fill-rule="evenodd" clip-rule="evenodd" d="M40.472 28.26c-.946.556-1.988.827-3.184.827-1.199 0-2.25-.272-3.213-.832a5.89 5.89 0 0 1-2.235-2.285c-.555-.997-.825-2.098-.825-3.366 0-1.269.27-2.37.825-3.365a6.044 6.044 0 0 1 2.247-2.315c.96-.567 2.007-.843 3.201-.843 1.192 0 2.229.274 3.171.839a6.081 6.081 0 0 1 2.237 2.317c.556 1 .827 2.102.827 3.367 0 1.264-.271 2.366-.826 3.365a5.94 5.94 0 0 1-2.225 2.29Zm8.1-12.272a12.535 12.535 0 0 0-4.69-4.722h-.002c-1.972-1.136-4.19-1.712-6.592-1.712-2.402 0-4.62.576-6.592 1.712a12.532 12.532 0 0 0-4.69 4.72c-1.132 1.983-1.706 4.21-1.706 6.618 0 2.4.558 4.615 1.657 6.58a12.437 12.437 0 0 0 4.557 4.704c1.924 1.145 4.095 1.725 6.454 1.725 2.023 0 3.91-.44 5.607-1.306.425-.217.833-.455 1.223-.714.165.327.386.624.66.885.641.611 1.471.934 2.402.934.949 0 1.79-.34 2.436-.987a3.33 3.33 0 0 0 .981-2.397v-9.424c0-2.403-.574-4.63-1.705-6.616Z" fill="#0064FF"/></svg>